<?xml version="1.0" encoding="utf-8"?>
<!-- Generator: Adobe Illustrator 23.0.2, SVG Export Plug-In . SVG Version: 6.00 Build 0)  -->
<svg version="1.1" id="Layer_1" xmlns="http://www.w3.org/2000/svg" xmlns:xlink="http://www.w3.org/1999/xlink" x="0px" y="0px"
	 viewBox="0 0 1376 1370" style="enable-background:new 0 0 1376 1370;" xml:space="preserve">
<style type="text/css">
	.st0{fill:none;enable-background:new    ;}
	.st1{fill:#FFFFFF;stroke:#000000;}
	.st2{fill:none;stroke:#000000;stroke-miterlimit:10;}
	.st3{stroke:#000000;}
	.st4{fill:#D2AB6F;stroke:#000000;stroke-linejoin:round;stroke-miterlimit:10;}
	.st5{fill:#D2AB6F;stroke:#000000;}
	.st6{fill:#787878;enable-background:new    ;}
</style>
<path class="st0" d="M0,0"/>
<g>
	<g>
		<rect x="156.9" y="158.5" pointer-events="all" class="st1" width="153.1" height="5"/>
		<path pointer-events="all" class="st2" d="M310,158.5C310,74,241.5,5.4,156.9,5.4v153.1"/>
	</g>
	<g>
		<rect x="4.7" y="153.1" pointer-events="all" class="st3" width="153.1" height="10"/>
	</g>
	<g>
		<rect x="311" y="153.4" pointer-events="all" class="st3" width="1060.4" height="10"/>
	</g>
	<g>
		<rect x="5.7" y="1354.9" pointer-events="all" class="st3" width="304.4" height="10"/>
	</g>
	<g>
		<rect x="311" y="1354.9" pointer-events="all" class="st1" width="227.8" height="10"/>
		<path pointer-events="all" class="st2" d="M311,1359.9h227.8"/>
	</g>
	<g>
		<rect x="538.8" y="1355" pointer-events="all" class="st3" width="304.4" height="10"/>
	</g>
	<g>
		<rect x="837.4" y="1354.9" pointer-events="all" class="st1" width="227.8" height="10"/>
		<path pointer-events="all" class="st2" d="M837.4,1359.9h227.8"/>
	</g>
	<g>
		<rect x="1065.2" y="1354.9" pointer-events="all" class="st3" width="306.3" height="10"/>
	</g>
	<g>
		<rect x="1361.1" y="163.6" pointer-events="all" class="st3" width="10" height="1197.9"/>
	</g>
	<g>
		<rect x="5.2" y="152.4" pointer-events="none" class="st3" width="10" height="1212.1"/>
	</g>
	<g>
		<path pointer-events="none" class="st4" d="M398.3,461.4l45.6-5.6c6.7-1.1,13.4,1.9,17.1,7.4c3.1,19.1,3.1,38.5,0,57.6
			c-3.7,5.6-10.4,8.5-17.1,7.4l-45.6-5.6c-5-1.1-8.9-6.4-9.5-13v-35.3C389.4,467.8,393.3,462.5,398.3,461.4z M388.8,511.2l-12.1,9.5
			 M388.8,500.6l-13.8,3.2 M388.8,487.9l-13.8-4.2 M388.8,477.3l-12.1-10.6 M377.4,463.5c-3.1,19.6-3.1,39.7,0,59.4l-7.6,8.5
			c-5.2-25.1-5.2-51.2,0-76.3L377.4,463.5z"/>
	</g>
	<g>
		<path pointer-events="none" class="st4" d="M398.3,356.2l45.6-5.6c6.7-1.1,13.4,1.9,17.1,7.4c3.1,19.1,3.1,38.5,0,57.6
			c-3.7,5.6-10.4,8.5-17.1,7.4l-45.6-5.6c-5.1-1.1-8.9-6.4-9.5-13v-35.3C389.4,362.5,393.3,357.2,398.3,356.2z M388.8,406l-12.1,9.5
			 M388.8,395.4l-13.8,3.2 M388.8,382.6l-13.8-4.2 M388.8,372l-12.1-10.6 M377.4,358.3c-3.1,19.6-3.1,39.7,0,59.4l-7.6,8.5
			c-5.2-25.1-5.2-51.2,0-76.3L377.4,358.3z"/>
	</g>
	<g>
		<path pointer-events="none" class="st4" d="M398.3,250.9l45.6-5.6c6.7-1.1,13.4,1.9,17.1,7.4c3.1,19.1,3.1,38.5,0,57.6
			c-3.7,5.6-10.4,8.5-17.1,7.4l-45.6-5.6c-5.1-1.1-8.9-6.4-9.5-13v-35.3C389.4,257.3,393.3,252,398.3,250.9z M388.8,300.7l-12,9.5
			 M388.8,290.1l-13.8,3.2 M388.8,277.4l-13.8-4.2 M388.8,266.8l-12-10.6 M377.4,253c-3.1,19.6-3.1,39.7,0,59.4l-7.6,8.5
			c-5.2-25.1-5.2-51.2,0-76.3L377.4,253z"/>
	</g>
	<g>
		<path pointer-events="none" class="st4" d="M644.8,314.2l-45.6,5.6c-6.7,1.1-13.4-1.9-17.1-7.4c-3.1-19.1-3.1-38.5,0-57.5
			c3.7-5.6,10.4-8.5,17.1-7.4l45.6,5.6c5,1.1,8.9,6.4,9.5,13v35.3C653.7,307.8,649.8,313.1,644.8,314.2z M654.3,264.4l12-9.5
			 M654.3,275l13.8-3.2 M654.3,287.7l13.8,4.2 M654.3,298.3l12,10.6 M665.7,312.1c3.1-19.6,3.1-39.7,0-59.3l7.6-8.5
			c5.2,25.1,5.2,51.2,0,76.3L665.7,312.1z"/>
	</g>
	<g>
		<path pointer-events="none" class="st4" d="M644.8,419.5l-45.6,5.6c-6.7,1.1-13.4-1.9-17.1-7.4c-3.1-19.1-3.1-38.5,0-57.5
			c3.7-5.6,10.4-8.5,17.1-7.4l45.6,5.6c5,1.1,8.9,6.4,9.5,13v35.3C653.7,413.1,649.8,418.4,644.8,419.5z M654.3,369.7l12.1-9.5
			 M654.3,380.3l13.8-3.2 M654.3,393l13.8,4.2 M654.3,403.6l12.1,10.6 M665.7,417.4c3.1-19.6,3.1-39.7,0-59.3l7.6-8.5
			c5.2,25.1,5.2,51.2,0,76.3L665.7,417.4z"/>
	</g>
	<g>
		<path pointer-events="none" class="st4" d="M644.8,524.8l-45.6,5.6c-6.7,1.1-13.4-1.9-17.1-7.4c-3.1-19.1-3.1-38.5,0-57.6
			c3.7-5.6,10.4-8.5,17.1-7.4l45.6,5.6c5,1.1,8.9,6.4,9.5,13v35.3C653.7,518.4,649.8,523.7,644.8,524.8z M654.3,475l12.1-9.5
			 M654.3,485.6l13.8-3.2 M654.3,498.3l13.8,4.2 M654.3,508.9l12.1,10.6 M665.7,522.7c3.1-19.6,3.1-39.7,0-59.4l7.6-8.5
			c5.2,25.1,5.2,51.2,0,76.3L665.7,522.7z"/>
	</g>
	<g>
		<rect x="425.9" y="225.1" pointer-events="none" class="st5" width="191.4" height="325.4"/>
	</g>
	<g>
		<path pointer-events="none" class="st4" d="M876.9,461.5l45.6-5.6c6.7-1.1,13.4,1.8,17.1,7.4c3.1,19.1,3.1,38.5,0,57.5
			c-3.7,5.6-10.4,8.5-17.1,7.4l-45.6-5.6c-5.1-1.1-8.9-6.4-9.5-13v-35.3C867.9,467.8,871.8,462.5,876.9,461.5z M867.4,511.2
			l-12.1,9.6 M867.4,500.6l-13.8,3.2 M867.4,487.9l-13.8-4.2 M867.4,477.3l-12.1-10.6 M856,463.5c-3.1,19.6-3.1,39.7,0,59.4
			l-7.6,8.5c-5.2-25.1-5.2-51.2,0-76.3L856,463.5z"/>
	</g>
	<g>
		<path pointer-events="none" class="st4" d="M876.9,356.2l45.6-5.6c6.7-1.1,13.4,1.8,17.1,7.4c3.1,19.1,3.1,38.5,0,57.5
			c-3.7,5.6-10.4,8.5-17.1,7.4l-45.6-5.6c-5.1-1.1-8.9-6.4-9.5-13V369C867.9,362.5,871.8,357.2,876.9,356.2z M867.4,406l-12.1,9.6
			 M867.4,395.4l-13.8,3.2 M867.4,382.6l-13.8-4.2 M867.4,372l-12.1-10.6 M856,358.3c-3.1,19.6-3.1,39.7,0,59.4l-7.6,8.5
			c-5.2-25.1-5.2-51.2,0-76.3L856,358.3z"/>
	</g>
	<g>
		<path pointer-events="none" class="st4" d="M876.9,250.9l45.6-5.6c6.7-1.1,13.4,1.8,17.1,7.4c3.1,19.1,3.1,38.5,0,57.5
			c-3.7,5.6-10.4,8.5-17.1,7.4l-45.6-5.6c-5.1-1.1-8.9-6.4-9.5-13v-35.3C867.9,257.3,871.8,252,876.9,250.9z M867.4,300.7l-12,9.6
			 M867.4,290.1l-13.8,3.2 M867.4,277.4l-13.8-4.2 M867.4,266.8l-12-10.6 M855.9,253c-3.1,19.6-3.1,39.7,0,59.4l-7.6,8.5
			c-5.2-25.1-5.2-51.2,0-76.3L855.9,253z"/>
	</g>
	<g>
		<path pointer-events="none" class="st4" d="M1123.3,314.2l-45.6,5.6c-6.7,1.1-13.4-1.9-17.1-7.4c-3.1-19.1-3.1-38.5,0-57.6
			c3.7-5.6,10.4-8.5,17.1-7.4l45.6,5.6c5.1,1.1,8.9,6.4,9.5,13v35.3C1132.3,307.8,1128.4,313.1,1123.3,314.2z M1132.8,264.4
			l12.1-9.5 M1132.8,275l13.8-3.2 M1132.8,287.7l13.8,4.2 M1132.8,298.3l12.1,10.6 M1144.3,312.1c3.1-19.6,3.1-39.7,0-59.4l7.6-8.5
			c5.2,25.1,5.2,51.2,0,76.3L1144.3,312.1z"/>
	</g>
	<g>
		<path pointer-events="none" class="st4" d="M1123.3,419.5l-45.6,5.6c-6.7,1.1-13.4-1.9-17.1-7.4c-3.1-19.1-3.1-38.5,0-57.6
			c3.7-5.6,10.4-8.5,17.1-7.4l45.6,5.6c5.1,1.1,8.9,6.4,9.5,13v35.3C1132.3,413.1,1128.4,418.4,1123.3,419.5z M1132.8,369.7
			l12.1-9.5 M1132.8,380.3l13.8-3.2 M1132.8,393l13.8,4.2 M1132.8,403.6l12.1,10.6 M1144.2,417.4c3.1-19.6,3.1-39.7,0-59.4l7.6-8.5
			c5.2,25.1,5.2,51.2,0,76.3L1144.2,417.4z"/>
	</g>
	<g>
		<path pointer-events="none" class="st4" d="M1123.3,524.8l-45.6,5.6c-6.7,1.1-13.4-1.9-17.1-7.4c-3.1-19.1-3.1-38.5,0-57.6
			c3.7-5.6,10.4-8.5,17.1-7.4l45.6,5.6c5,1.1,8.9,6.4,9.5,13v35.3C1132.3,518.4,1128.4,523.7,1123.3,524.8z M1132.8,475l12.1-9.5
			 M1132.8,485.6l13.8-3.2 M1132.8,498.3l13.8,4.2 M1132.8,508.9l12.1,10.6 M1144.2,522.7c3.1-19.6,3.1-39.7,0-59.4l7.6-8.5
			c5.2,25.1,5.2,51.2,0,76.3L1144.2,522.7z"/>
	</g>
	<g>
		<rect x="904.4" y="225.1" pointer-events="none" class="st5" width="191.4" height="325.4"/>
	</g>
	<g>
		<path pointer-events="none" class="st4" d="M432.3,1062.7l-45.6,5.6c-6.7,1.1-13.4-1.9-17.1-7.4c-3.1-19.1-3.1-38.5,0-57.5
			c3.7-5.6,10.4-8.5,17.1-7.4l45.6,5.6c5,1.1,8.9,6.4,9.5,13v35.3C441.3,1056.3,437.4,1061.7,432.3,1062.7z M441.8,1012.9l12.1-9.5
			 M441.8,1023.5l13.8-3.2 M441.8,1036.2l13.8,4.2 M441.8,1046.8l12.1,10.6 M453.2,1060.6c3.1-19.6,3.1-39.7,0-59.4l7.6-8.5
			c5.2,25.1,5.2,51.2,0,76.3L453.2,1060.6z"/>
	</g>
	<g>
		<path pointer-events="none" class="st4" d="M432.3,957.2l-45.6,5.6c-6.7,1.1-13.4-1.9-17.1-7.4c-3.1-19.1-3.1-38.5,0-57.5
			c3.7-5.6,10.4-8.5,17.1-7.4l45.6,5.6c5,1.1,8.9,6.4,9.5,13v35.3C441.3,950.8,437.4,956.1,432.3,957.2z M441.8,907.4l12-9.5
			 M441.8,918l13.8-3.2 M441.8,930.7l13.8,4.2 M441.8,941.3l12,10.6 M453.2,955.1c3.1-19.6,3.1-39.7,0-59.4l7.6-8.5
			c5.2,25.1,5.2,51.2,0,76.3L453.2,955.1z"/>
	</g>
	<g>
		<path pointer-events="none" class="st4" d="M432.3,851.7l-45.6,5.6c-6.7,1.1-13.4-1.9-17.1-7.4c-3.1-19.1-3.1-38.5,0-57.5
			c3.7-5.6,10.4-8.5,17.1-7.4l45.6,5.6c5,1.1,8.9,6.4,9.5,13v35.3C441.3,845.4,437.4,850.7,432.3,851.7z M441.8,801.9l12.1-9.5
			 M441.8,812.5l13.8-3.2 M441.8,825.3l13.8,4.2 M441.8,835.9l12.1,10.6 M453.2,849.6c3.1-19.6,3.1-39.7,0-59.4l7.6-8.5
			c5.2,25.1,5.2,51.2,0,76.3L453.2,849.6z"/>
	</g>
	<g>
		<path pointer-events="none" class="st4" d="M432.3,1274.1l-45.6,5.6c-6.7,1.1-13.4-1.9-17.1-7.4c-3.1-19.1-3.1-38.5,0-57.5
			c3.7-5.6,10.4-8.5,17.1-7.4l45.6,5.6c5.1,1.1,8.9,6.4,9.5,13v35.3C441.3,1267.7,437.4,1273,432.3,1274.1z M441.8,1224.3l12.1-9.5
			 M441.8,1234.9l13.8-3.2 M441.8,1247.6l13.8,4.2 M441.8,1258.2l12.1,10.6 M453.2,1272c3.1-19.6,3.1-39.7,0-59.4l7.6-8.5
			c5.2,25.1,5.2,51.2,0,76.3L453.2,1272z"/>
	</g>
	<g>
		<path pointer-events="none" class="st4" d="M432.3,1168.8l-45.6,5.6c-6.7,1.1-13.4-1.9-17.1-7.4c-3.1-19.1-3.1-38.5,0-57.5
			c3.7-5.6,10.4-8.5,17.1-7.4l45.6,5.6c5.1,1.1,8.9,6.4,9.5,13v35.3C441.3,1162.4,437.4,1167.8,432.3,1168.8z M441.8,1119l12.1-9.5
			 M441.8,1129.6l13.8-3.2 M441.8,1142.3l13.8,4.2 M441.8,1152.9l12.1,10.6 M453.2,1166.7c3.1-19.6,3.1-39.7,0-59.4l7.6-8.5
			c5.2,25.1,5.2,51.2,0,76.3L453.2,1166.7z"/>
	</g>
	<g>
		<path pointer-events="none" class="st5" d="M432.3,751.4l-45.6,5.6c-6.7,1.1-13.4-1.9-17.1-7.4c-3.1-19.1-3.1-38.5,0-57.5
			c3.7-5.6,10.4-8.5,17.1-7.4l45.6,5.6c5,1.1,8.9,6.4,9.5,13v35.3C441.2,745.1,437.4,750.4,432.3,751.4z M441.8,701.7l12-9.5
			 M441.8,712.3l13.8-3.2 M441.8,725l13.8,4.2 M441.8,735.6l12,10.6 M453.2,749.3c3.1-19.6,3.1-39.7,0-59.4l7.6-8.5
			c5.2,25.1,5.2,51.2,0,76.3L453.2,749.3z"/>
	</g>
	<g>
		<path pointer-events="none" class="st4" d="M181.4,899.5l45.6-5.6c6.7-1.1,13.4,1.9,17.1,7.4c3.1,19.1,3.1,38.5,0,57.6
			c-3.7,5.6-10.4,8.5-17.1,7.4l-45.6-5.6c-5.1-1.1-8.9-6.4-9.5-13v-35.3C172.5,905.9,176.4,900.6,181.4,899.5z M171.9,949.3l-12,9.5
			 M171.9,938.7l-13.8,3.2 M171.9,926l-13.8-4.2 M171.9,915.4l-12-10.6 M160.5,901.6c-3.1,19.6-3.1,39.7,0,59.3l-7.6,8.5
			c-5.2-25.1-5.2-51.2,0-76.3L160.5,901.6z"/>
	</g>
	<g>
		<path pointer-events="none" class="st4" d="M181.4,1005l45.6-5.6c6.7-1.1,13.4,1.9,17.1,7.4c3.1,19.1,3.1,38.5,0,57.6
			c-3.7,5.6-10.4,8.5-17.1,7.4l-45.6-5.6c-5.1-1.1-8.9-6.4-9.5-13V1018C172.5,1011.4,176.4,1006.1,181.4,1005z M171.9,1054.8
			l-12,9.5 M171.9,1044.2l-13.8,3.2 M171.9,1031.5l-13.8-4.2 M171.9,1020.9l-12-10.6 M160.5,1007.1c-3.1,19.6-3.1,39.7,0,59.4
			l-7.6,8.5c-5.2-25.1-5.2-51.2,0-76.3L160.5,1007.1z"/>
	</g>
	<g>
		<path pointer-events="none" class="st4" d="M181.4,1110.5l45.6-5.6c6.7-1.1,13.4,1.9,17.1,7.4c3.1,19.1,3.1,38.5,0,57.6
			c-3.7,5.6-10.4,8.5-17.1,7.4l-45.6-5.6c-5.1-1.1-8.9-6.4-9.5-13v-35.3C172.5,1116.9,176.4,1111.6,181.4,1110.5z M171.9,1160.3
			l-12.1,9.5 M171.9,1149.7l-13.8,3.2 M171.9,1137l-13.8-4.2 M171.9,1126.4l-12.1-10.6 M160.5,1112.6c-3.1,19.6-3.1,39.7,0,59.4
			l-7.6,8.5c-5.2-25.1-5.2-51.2,0-76.3L160.5,1112.6z"/>
	</g>
	<g>
		<path pointer-events="none" class="st4" d="M181.4,688.1l45.6-5.6c6.7-1.1,13.4,1.9,17.1,7.4c3.1,19.1,3.1,38.5,0,57.5
			c-3.7,5.6-10.4,8.5-17.1,7.4l-45.6-5.6c-5-1.1-8.9-6.4-9.5-13v-35.3C172.5,694.5,176.4,689.2,181.4,688.1z M171.9,737.9l-12,9.5
			 M171.9,727.3l-13.8,3.2 M171.9,714.6l-13.8-4.2 M171.9,704l-12-10.6 M160.5,690.2c-3.1,19.6-3.1,39.7,0,59.3l-7.6,8.5
			c-5.2-25.1-5.2-51.2,0-76.3L160.5,690.2z"/>
	</g>
	<g>
		<path pointer-events="none" class="st4" d="M181.4,793.4l45.6-5.6c6.7-1.1,13.4,1.9,17.1,7.4c3.1,19.1,3.1,38.5,0,57.5
			c-3.7,5.6-10.4,8.5-17.1,7.4l-45.6-5.6c-5-1.1-8.9-6.4-9.5-13v-35.3C172.5,799.8,176.4,794.5,181.4,793.4z M171.9,843.2l-12,9.5
			 M171.9,832.6l-13.8,3.2 M171.9,819.9l-13.8-4.2 M171.9,809.3l-12-10.6 M160.5,795.5c-3.1,19.6-3.1,39.7,0,59.3l-7.6,8.5
			c-5.2-25.1-5.2-51.2,0-76.3L160.5,795.5z"/>
	</g>
	<g>
		<path pointer-events="none" class="st4" d="M181.4,1210.8l45.6-5.6c6.7-1.1,13.4,1.9,17.1,7.4c3.1,19.1,3.1,38.5,0,57.6
			c-3.7,5.6-10.4,8.5-17.1,7.4l-45.6-5.6c-5-1.1-8.9-6.4-9.5-13v-35.3C172.5,1217.2,176.4,1211.9,181.4,1210.8z M171.9,1260.6
			l-12,9.5 M171.9,1250l-13.8,3.2 M171.9,1237.3l-13.8-4.2 M171.9,1226.7l-12-10.6 M160.5,1212.9c-3.1,19.6-3.1,39.7,0,59.4
			l-7.6,8.5c-5.2-25.1-5.2-51.2,0-76.3L160.5,1212.9z"/>
	</g>
	<g>
		<rect x="211.5" y="658.5" pointer-events="none" class="st5" width="191.4" height="651.4"/>
	</g>
	<g>
		<path pointer-events="none" class="st4" d="M1031.4,1062.7l-45.6,5.6c-6.7,1.1-13.4-1.8-17.1-7.4c-3.1-19.1-3.1-38.5,0-57.6
			c3.7-5.6,10.4-8.5,17.1-7.4l45.6,5.6c5,1.1,8.9,6.4,9.5,13v35.3C1040.4,1056.3,1036.5,1061.6,1031.4,1062.7z M1040.9,1012.9
			l12.1-9.5 M1040.9,1023.5l13.8-3.2 M1040.9,1036.2l13.8,4.2 M1040.9,1046.8l12.1,10.6 M1052.4,1060.6c3.1-19.6,3.1-39.7,0-59.4
			l7.6-8.5c5.2,25.1,5.2,51.2,0,76.3L1052.4,1060.6z"/>
	</g>
	<g>
		<path pointer-events="none" class="st4" d="M1031.4,957.2l-45.6,5.6c-6.7,1.1-13.4-1.8-17.1-7.4c-3.1-19.1-3.1-38.5,0-57.6
			c3.7-5.6,10.4-8.5,17.1-7.4l45.6,5.6c5.1,1.1,8.9,6.4,9.5,13v35.3C1040.4,950.8,1036.5,956.1,1031.4,957.2z M1041,907.4l12.1-9.5
			 M1041,918l13.8-3.2 M1041,930.7l13.8,4.2 M1041,941.3l12.1,10.6 M1052.4,955.1c3.1-19.6,3.1-39.7,0-59.3l7.6-8.5
			c5.2,25.1,5.2,51.2,0,76.3L1052.4,955.1z"/>
	</g>
	<g>
		<path pointer-events="none" class="st4" d="M1031.4,851.7l-45.6,5.6c-6.7,1.1-13.4-1.8-17.1-7.4c-3.1-19.1-3.1-38.5,0-57.6
			c3.7-5.6,10.4-8.5,17.1-7.4l45.6,5.6c5.1,1.1,8.9,6.4,9.5,13v35.3C1040.4,845.4,1036.5,850.7,1031.4,851.7z M1041,801.9l12.1-9.5
			 M1041,812.5l13.8-3.2 M1041,825.3l13.8,4.2 M1041,835.9l12.1,10.6 M1052.4,849.6c3.1-19.6,3.1-39.7,0-59.3l7.6-8.5
			c5.2,25.1,5.2,51.2,0,76.3L1052.4,849.6z"/>
	</g>
	<g>
		<path pointer-events="none" class="st4" d="M1031.4,1274.1l-45.6,5.6c-6.7,1.1-13.4-1.8-17.1-7.4c-3.1-19.1-3.1-38.5,0-57.6
			c3.7-5.6,10.4-8.5,17.1-7.4l45.6,5.6c5.1,1.1,8.9,6.4,9.5,13v35.3C1040.4,1267.7,1036.5,1273,1031.4,1274.1z M1040.9,1224.3
			l12.1-9.5 M1040.9,1234.9l13.8-3.2 M1040.9,1247.6l13.8,4.2 M1040.9,1258.2l12.1,10.6 M1052.4,1272c3.1-19.6,3.1-39.7,0-59.4
			l7.6-8.5c5.2,25.1,5.2,51.2,0,76.3L1052.4,1272z"/>
	</g>
	<g>
		<path pointer-events="none" class="st4" d="M1031.5,1168.8l-45.6,5.6c-6.7,1.1-13.4-1.9-17.1-7.4c-3.1-19.1-3.1-38.5,0-57.6
			c3.7-5.6,10.4-8.5,17.1-7.4l45.6,5.6c5.1,1.1,8.9,6.4,9.5,13v35.3C1040.4,1162.4,1036.5,1167.8,1031.5,1168.8z M1041,1119
			l12.1-9.5 M1041,1129.6l13.8-3.2 M1041,1142.4l13.8,4.2 M1041,1152.9l12.1,10.6 M1052.4,1166.7c3.1-19.6,3.1-39.7,0-59.3l7.6-8.5
			c5.2,25.1,5.2,51.2,0,76.3L1052.4,1166.7z"/>
	</g>
	<g>
		<path pointer-events="none" class="st5" d="M1031.4,751.4l-45.6,5.6c-6.7,1.1-13.4-1.8-17.1-7.4c-3.1-19.1-3.1-38.5,0-57.6
			c3.7-5.6,10.4-8.5,17.1-7.4l45.6,5.6c5.1,1.1,8.9,6.4,9.5,13v35.3C1040.4,745.1,1036.5,750.4,1031.4,751.4z M1041,701.7l12.1-9.5
			 M1041,712.3l13.8-3.2 M1041,725l13.8,4.2 M1041,735.6l12.1,10.6 M1052.4,749.3c3.1-19.6,3.1-39.7,0-59.3l7.6-8.5
			c5.2,25.1,5.2,51.2,0,76.3L1052.4,749.3z"/>
	</g>
	<g>
		<path pointer-events="none" class="st4" d="M780.6,899.5l45.6-5.6c6.7-1.1,13.4,1.9,17.1,7.4c3.1,19.1,3.1,38.5,0,57.6
			c-3.7,5.6-10.4,8.5-17.1,7.4l-45.6-5.6c-5.1-1.1-8.9-6.4-9.5-13v-35.3C771.6,905.9,775.5,900.6,780.6,899.5z M771.1,949.3l-12,9.5
			 M771.1,938.7l-13.8,3.2 M771.1,926l-13.8-4.2 M771.1,915.4l-12-10.6 M759.6,901.6c-3.1,19.6-3.1,39.7,0,59.3l-7.6,8.5
			c-5.2-25.1-5.2-51.2,0-76.3L759.6,901.6z"/>
	</g>
	<g>
		<path pointer-events="none" class="st4" d="M780.6,1005l45.6-5.6c6.7-1.1,13.4,1.9,17.1,7.4c3.1,19.1,3.1,38.5,0,57.6
			c-3.7,5.6-10.4,8.5-17.1,7.4l-45.6-5.6c-5.1-1.1-8.9-6.4-9.5-13V1018C771.6,1011.4,775.5,1006.1,780.6,1005z M771.1,1054.8
			l-12,9.5 M771.1,1044.2l-13.8,3.2 M771.1,1031.5l-13.8-4.2 M771.1,1020.9l-12-10.6 M759.7,1007.1c-3.1,19.6-3.1,39.7,0,59.4
			l-7.6,8.5c-5.2-25.1-5.2-51.2,0-76.3L759.7,1007.1z"/>
	</g>
	<g>
		<path pointer-events="none" class="st4" d="M780.6,1110.5l45.6-5.6c6.7-1.1,13.4,1.8,17.1,7.4c3.1,19.1,3.1,38.5,0,57.6
			c-3.7,5.6-10.4,8.5-17.1,7.4l-45.6-5.6c-5.1-1.1-8.9-6.4-9.5-13v-35.3C771.6,1116.9,775.5,1111.6,780.6,1110.5z M771.1,1160.3
			l-12.1,9.5 M771.1,1149.7l-13.8,3.2 M771.1,1137l-13.8-4.2 M771.1,1126.4l-12.1-10.6 M759.7,1112.6c-3.1,19.6-3.1,39.7,0,59.4
			l-7.6,8.5c-5.2-25.1-5.2-51.2,0-76.3L759.7,1112.6z"/>
	</g>
	<g>
		<path pointer-events="none" class="st4" d="M780.6,688.1l45.6-5.6c6.7-1.1,13.4,1.9,17.1,7.4c3.1,19.1,3.1,38.5,0,57.6
			c-3.7,5.6-10.4,8.5-17.1,7.4l-45.6-5.6c-5-1.1-8.9-6.4-9.5-13V701C771.6,694.5,775.5,689.2,780.6,688.1z M771.1,737.9l-12,9.5
			 M771.1,727.3l-13.8,3.2 M771.1,714.6l-13.8-4.2 M771.1,704l-12-10.6 M759.7,690.2c-3.1,19.6-3.1,39.7,0,59.3l-7.6,8.5
			c-5.2-25.1-5.2-51.2,0-76.3L759.7,690.2z"/>
	</g>
	<g>
		<path pointer-events="none" class="st4" d="M780.6,793.4l45.6-5.6c6.7-1.1,13.4,1.9,17.1,7.4c3.1,19.1,3.1,38.5,0,57.6
			c-3.7,5.6-10.4,8.5-17.1,7.4l-45.6-5.6c-5-1.1-8.9-6.4-9.5-13v-35.3C771.6,799.8,775.5,794.5,780.6,793.4z M771.1,843.2l-12,9.5
			 M771.1,832.6l-13.8,3.2 M771.1,819.9l-13.8-4.2 M771.1,809.3l-12-10.6 M759.6,795.5c-3.1,19.6-3.1,39.7,0,59.3l-7.6,8.5
			c-5.2-25.1-5.2-51.2,0-76.3L759.6,795.5z"/>
	</g>
	<g>
		<path pointer-events="none" class="st4" d="M780.6,1210.8l45.6-5.6c6.7-1.1,13.4,1.8,17.1,7.4c3.1,19.1,3.1,38.5,0,57.6
			c-3.7,5.6-10.4,8.5-17.1,7.4l-45.6-5.6c-5-1.1-8.9-6.4-9.5-13v-35.3C771.6,1217.2,775.5,1211.9,780.6,1210.8z M771.1,1260.6
			l-12,9.5 M771.1,1250l-13.8,3.2 M771.1,1237.3l-13.8-4.2 M771.1,1226.7l-12-10.6 M759.7,1212.9c-3.1,19.6-3.1,39.7,0,59.4
			l-7.6,8.5c-5.2-25.1-5.2-51.2,0-76.3L759.7,1212.9z"/>
	</g>
	<g>
		<rect x="810.6" y="658.5" pointer-events="none" class="st5" width="191.4" height="651.4"/>
	</g>
</g>
<path class="st6" d="M0,0"/>
</svg>
