<?xml version="1.0" encoding="UTF-8"?>
<!DOCTYPE svg PUBLIC "-//W3C//DTD SVG 1.1//EN" "http://www.w3.org/Graphics/SVG/1.1/DTD/svg11.dtd">
<svg xmlns="http://www.w3.org/2000/svg" xmlns:xlink="http://www.w3.org/1999/xlink" version="1.1" width="715px" height="683px" viewBox="-0.5 -0.5 715 683" animation="{&quot;scriptArr&quot;:[],&quot;cellIdArr&quot;:[]}"><defs><style type="text/css">ul { margin-top: 0px; margin-bottom: 10px; }&#xa;ol { margin-top: 0px; margin-bottom: 10px; }&#xa;.h1, .h2, .h3, .h4, .h5, .h6, h1, h2, h3, h4, h5, h6 { margin-bottom: .5rem; font-weight: 500; line-height: 1.2; }&#xa;h1, h2, h3, h4, h5, h6 { margin-top: 0; margin-bottom: .5rem; }&#xa;.h1, h1 { font-size: 2.5rem; }&#xa;h2 { font-size: 1.5em; font-weight: bold; }&#xa;h3 { font-size: 1.17em; font-weight: bold; }&#xa;.h4, h4 { font-size: 1.5rem; }&#xa;.h5, h5 { font-size: 1.25rem; }&#xa;.h6, h6 { font-size: 1rem; }&#xa;p { margin-top: 0; margin-bottom: 1rem; }&#xa;a { color: #007bff; }&#xa;</style><style type="text/css">@import url(https://fonts.googleapis.com/css2?family=Open+Sans:ital,wght@0,400;0,700;1,400;1,700&amp;display=swap);&#xa;@import url(https://fonts.googleapis.com/css2?family=Open+Sans:ital,wght@0,400;0,700;1,400;1,700&amp;display=swap);&#xa;</style></defs><g><g shape-node=""><rect cell-id="hxKZBSFVh37i9C7gJ8mw-31" x="79.5" y="-0.08" width="80" height="5" fill="#ffffff" stroke="#000000" transform="rotate(180,119.5,42.42)" pointer-events="all"/><path cell-id="hxKZBSFVh37i9C7gJ8mw-31" d="M 79.5 4.92 C 79.5 49.1 115.32 84.92 159.5 84.92 L 159.5 4.92" fill="none" stroke="#000000" stroke-miterlimit="10" transform="rotate(180,119.5,42.42)" pointer-events="all"/></g><g shape-node=""><rect cell-id="hxKZBSFVh37i9C7gJ8mw-32" x="0" y="75" width="80" height="10" fill="#000000" stroke="#000000" pointer-events="all"/></g><g shape-node=""><rect cell-id="hxKZBSFVh37i9C7gJ8mw-33" x="160" y="72.52" width="554" height="10" fill="#000000" stroke="#000000" pointer-events="all"/></g><g shape-node=""><rect cell-id="hxKZBSFVh37i9C7gJ8mw-136" x="0.5" y="671" width="159" height="10" fill="#000000" stroke="#000000" pointer-events="all"/></g><g shape-node=""><rect cell-id="hxKZBSFVh37i9C7gJ8mw-142" x="160" y="671" width="119" height="10" fill="#ffffff" stroke="#000000" pointer-events="all"/><path cell-id="hxKZBSFVh37i9C7gJ8mw-142" d="M 160 676 L 279 676" fill="none" stroke="#000000" stroke-miterlimit="10" pointer-events="all"/></g><g shape-node=""><rect cell-id="hxKZBSFVh37i9C7gJ8mw-143" x="279" y="670" width="159" height="10" fill="#000000" stroke="#000000" pointer-events="all"/></g><g shape-node=""><rect cell-id="hxKZBSFVh37i9C7gJ8mw-144" x="435" y="669.94" width="119" height="10" fill="#ffffff" stroke="#000000" pointer-events="all"/><path cell-id="hxKZBSFVh37i9C7gJ8mw-144" d="M 435 674.94 L 554 674.94" fill="none" stroke="#000000" stroke-miterlimit="10" pointer-events="all"/></g><g shape-node=""><rect cell-id="hxKZBSFVh37i9C7gJ8mw-145" x="554" y="669.94" width="160" height="10" fill="#000000" stroke="#000000" pointer-events="all"/></g><g shape-node=""><rect cell-id="hxKZBSFVh37i9C7gJ8mw-146" x="408" y="373" width="602" height="10" fill="#000000" stroke="#000000" transform="rotate(90,709,378)" pointer-events="all"/></g><g shape-node=""><path cell-id="CIwULWJDmqd1CjYKgn_B-4" d="M 231.54 491.62 L 234.45 515.46 C 235 518.97 233.48 522.47 230.57 524.4 C 220.61 526 210.46 526 200.5 524.4 C 197.59 522.47 196.06 518.97 196.62 515.46 L 199.53 491.62 C 200.09 488.98 202.86 486.95 206.32 486.65 L 224.75 486.65 C 228.2 486.95 230.98 488.98 231.54 491.62 Z M 205.52 486.65 L 200.54 480.36 M 211.06 486.65 L 209.4 479.46 M 217.71 486.65 L 219.92 479.46 M 223.24 486.65 L 228.78 480.36 M 230.44 480.69 C 220.19 479.06 209.69 479.06 199.43 480.69 L 195 476.72 C 208.12 474.01 221.76 474.01 234.87 476.72 Z" fill="#ffffff" stroke="#000000" stroke-linejoin="round" stroke-miterlimit="10" transform="rotate(90,215,500)" pointer-events="none"/></g><g shape-node=""><path cell-id="CIwULWJDmqd1CjYKgn_B-2" d="M 231.04 439.62 L 233.95 463.46 C 234.5 466.97 232.98 470.47 230.07 472.4 C 220.11 474 209.96 474 200 472.4 C 197.09 470.47 195.56 466.97 196.12 463.46 L 199.03 439.62 C 199.59 436.98 202.36 434.95 205.82 434.65 L 224.25 434.65 C 227.7 434.95 230.48 436.98 231.04 439.62 Z M 205.02 434.65 L 200.04 428.36 M 210.56 434.65 L 208.9 427.46 M 217.21 434.65 L 219.42 427.46 M 222.74 434.65 L 228.28 428.36 M 229.94 428.69 C 219.69 427.06 209.19 427.06 198.93 428.69 L 194.5 424.72 C 207.62 422.01 221.26 422.01 234.37 424.72 Z" fill="#ffffff" stroke="#000000" stroke-linejoin="round" stroke-miterlimit="10" transform="rotate(90,214.5,448)" pointer-events="none"/></g><g shape-node=""><path cell-id="CIwULWJDmqd1CjYKgn_B-3" d="M 231.54 386.62 L 234.45 410.46 C 235 413.97 233.48 417.47 230.57 419.4 C 220.61 421 210.46 421 200.5 419.4 C 197.59 417.47 196.06 413.97 196.62 410.46 L 199.53 386.62 C 200.09 383.98 202.86 381.95 206.32 381.65 L 224.75 381.65 C 228.2 381.95 230.98 383.98 231.54 386.62 Z M 205.52 381.65 L 200.54 375.36 M 211.06 381.65 L 209.4 374.46 M 217.71 381.65 L 219.92 374.46 M 223.24 381.65 L 228.78 375.36 M 230.44 375.69 C 220.19 374.06 209.69 374.06 199.43 375.69 L 195 371.72 C 208.12 369.01 221.76 369.01 234.87 371.72 Z" fill="#ffffff" stroke="#000000" stroke-linejoin="round" stroke-miterlimit="10" transform="rotate(90,215,395)" pointer-events="none"/></g><g shape-node=""><path cell-id="hxKZBSFVh37i9C7gJ8mw-95" d="M 227.54 603.62 L 230.45 627.46 C 231 630.97 229.48 634.47 226.57 636.4 C 216.61 638 206.46 638 196.5 636.4 C 193.59 634.47 192.06 630.97 192.62 627.46 L 195.53 603.62 C 196.09 600.98 198.86 598.95 202.32 598.65 L 220.75 598.65 C 224.2 598.95 226.98 600.98 227.54 603.62 Z M 201.52 598.65 L 196.54 592.36 M 207.06 598.65 L 205.4 591.46 M 213.71 598.65 L 215.92 591.46 M 219.24 598.65 L 224.78 592.36 M 226.44 592.69 C 216.19 591.06 205.69 591.06 195.43 592.69 L 191 588.72 C 204.12 586.01 217.76 586.01 230.87 588.72 Z" fill="#ffffff" stroke="#000000" stroke-linejoin="round" stroke-miterlimit="10" transform="rotate(90,211,612)" pointer-events="none"/></g><g shape-node=""><path cell-id="CIwULWJDmqd1CjYKgn_B-1" d="M 227.54 548.62 L 230.45 572.46 C 231 575.97 229.48 579.47 226.57 581.4 C 216.61 583 206.46 583 196.5 581.4 C 193.59 579.47 192.06 575.97 192.62 572.46 L 195.53 548.62 C 196.09 545.98 198.86 543.95 202.32 543.65 L 220.75 543.65 C 224.2 543.95 226.98 545.98 227.54 548.62 Z M 201.52 543.65 L 196.54 537.36 M 207.06 543.65 L 205.4 536.46 M 213.71 543.65 L 215.92 536.46 M 219.24 543.65 L 224.78 537.36 M 226.44 537.69 C 216.19 536.06 205.69 536.06 195.43 537.69 L 191 533.72 C 204.12 531.01 217.76 531.01 230.87 533.72 Z" fill="#ffffff" stroke="#000000" stroke-linejoin="round" stroke-miterlimit="10" transform="rotate(90,211,557)" pointer-events="none"/></g><g shape-node=""><path cell-id="CIwULWJDmqd1CjYKgn_B-7" d="M 114.54 498.62 L 117.45 522.46 C 118 525.97 116.48 529.47 113.57 531.4 C 103.61 533 93.46 533 83.5 531.4 C 80.59 529.47 79.06 525.97 79.62 522.46 L 82.53 498.62 C 83.09 495.98 85.86 493.95 89.32 493.65 L 107.75 493.65 C 111.2 493.95 113.98 495.98 114.54 498.62 Z M 88.52 493.65 L 83.54 487.36 M 94.06 493.65 L 92.4 486.46 M 100.71 493.65 L 102.92 486.46 M 106.24 493.65 L 111.78 487.36 M 113.44 487.69 C 103.19 486.06 92.69 486.06 82.43 487.69 L 78 483.72 C 91.12 481.01 104.76 481.01 117.87 483.72 Z" fill="#ffffff" stroke="#000000" stroke-linejoin="round" stroke-miterlimit="10" transform="rotate(-90,98,507)" pointer-events="none"/></g><g shape-node=""><path cell-id="CIwULWJDmqd1CjYKgn_B-8" d="M 115.04 550.62 L 117.95 574.46 C 118.5 577.97 116.98 581.47 114.07 583.4 C 104.11 585 93.96 585 84 583.4 C 81.09 581.47 79.56 577.97 80.12 574.46 L 83.03 550.62 C 83.59 547.98 86.36 545.95 89.82 545.65 L 108.25 545.65 C 111.7 545.95 114.48 547.98 115.04 550.62 Z M 89.02 545.65 L 84.04 539.36 M 94.56 545.65 L 92.9 538.46 M 101.21 545.65 L 103.42 538.46 M 106.74 545.65 L 112.28 539.36 M 113.94 539.69 C 103.69 538.06 93.19 538.06 82.93 539.69 L 78.5 535.72 C 91.62 533.01 105.26 533.01 118.37 535.72 Z" fill="#ffffff" stroke="#000000" stroke-linejoin="round" stroke-miterlimit="10" transform="rotate(-90,98.5,559)" pointer-events="none"/></g><g shape-node=""><path cell-id="CIwULWJDmqd1CjYKgn_B-9" d="M 114.54 603.62 L 117.45 627.46 C 118 630.97 116.48 634.47 113.57 636.4 C 103.61 638 93.46 638 83.5 636.4 C 80.59 634.47 79.06 630.97 79.62 627.46 L 82.53 603.62 C 83.09 600.98 85.86 598.95 89.32 598.65 L 107.75 598.65 C 111.2 598.95 113.98 600.98 114.54 603.62 Z M 88.52 598.65 L 83.54 592.36 M 94.06 598.65 L 92.4 591.46 M 100.71 598.65 L 102.92 591.46 M 106.24 598.65 L 111.78 592.36 M 113.44 592.69 C 103.19 591.06 92.69 591.06 82.43 592.69 L 78 588.72 C 91.12 586.01 104.76 586.01 117.87 588.72 Z" fill="#ffffff" stroke="#000000" stroke-linejoin="round" stroke-miterlimit="10" transform="rotate(-90,98,612)" pointer-events="none"/></g><g shape-node=""><path cell-id="CIwULWJDmqd1CjYKgn_B-10" d="M 118.54 386.62 L 121.45 410.46 C 122 413.97 120.48 417.47 117.57 419.4 C 107.61 421 97.46 421 87.5 419.4 C 84.59 417.47 83.06 413.97 83.62 410.46 L 86.53 386.62 C 87.09 383.98 89.86 381.95 93.32 381.65 L 111.75 381.65 C 115.2 381.95 117.98 383.98 118.54 386.62 Z M 92.52 381.65 L 87.54 375.36 M 98.06 381.65 L 96.4 374.46 M 104.71 381.65 L 106.92 374.46 M 110.24 381.65 L 115.78 375.36 M 117.44 375.69 C 107.19 374.06 96.69 374.06 86.43 375.69 L 82 371.72 C 95.12 369.01 108.76 369.01 121.87 371.72 Z" fill="#ffffff" stroke="#000000" stroke-linejoin="round" stroke-miterlimit="10" transform="rotate(-90,102,395)" pointer-events="none"/></g><g shape-node=""><path cell-id="CIwULWJDmqd1CjYKgn_B-11" d="M 118.54 441.62 L 121.45 465.46 C 122 468.97 120.48 472.47 117.57 474.4 C 107.61 476 97.46 476 87.5 474.4 C 84.59 472.47 83.06 468.97 83.62 465.46 L 86.53 441.62 C 87.09 438.98 89.86 436.95 93.32 436.65 L 111.75 436.65 C 115.2 436.95 117.98 438.98 118.54 441.62 Z M 92.52 436.65 L 87.54 430.36 M 98.06 436.65 L 96.4 429.46 M 104.71 436.65 L 106.92 429.46 M 110.24 436.65 L 115.78 430.36 M 117.44 430.69 C 107.19 429.06 96.69 429.06 86.43 430.69 L 82 426.72 C 95.12 424.01 108.76 424.01 121.87 426.72 Z" fill="#ffffff" stroke="#000000" stroke-linejoin="round" stroke-miterlimit="10" transform="rotate(-90,102,450)" pointer-events="none"/></g><g shape-node=""><rect cell-id="hxKZBSFVh37i9C7gJ8mw-96" x="108" y="365" width="100" height="276" fill="#ffffff" stroke="#000000" pointer-events="none"/></g><g shape-node=""><path cell-id="CIwULWJDmqd1CjYKgn_B-14" d="M 520.54 491.62 L 523.45 515.46 C 524 518.97 522.48 522.47 519.57 524.4 C 509.61 526 499.46 526 489.5 524.4 C 486.59 522.47 485.06 518.97 485.62 515.46 L 488.53 491.62 C 489.09 488.98 491.86 486.95 495.32 486.65 L 513.75 486.65 C 517.2 486.95 519.98 488.98 520.54 491.62 Z M 494.52 486.65 L 489.54 480.36 M 500.06 486.65 L 498.4 479.46 M 506.71 486.65 L 508.92 479.46 M 512.24 486.65 L 517.78 480.36 M 519.44 480.69 C 509.19 479.06 498.69 479.06 488.43 480.69 L 484 476.72 C 497.12 474.01 510.76 474.01 523.87 476.72 Z" fill="#ffffff" stroke="#000000" stroke-linejoin="round" stroke-miterlimit="10" transform="rotate(90,504,500)" pointer-events="none"/></g><g shape-node=""><path cell-id="CIwULWJDmqd1CjYKgn_B-15" d="M 520.04 439.62 L 522.95 463.46 C 523.5 466.97 521.98 470.47 519.07 472.4 C 509.11 474 498.96 474 489 472.4 C 486.09 470.47 484.56 466.97 485.12 463.46 L 488.03 439.62 C 488.59 436.98 491.36 434.95 494.82 434.65 L 513.25 434.65 C 516.7 434.95 519.48 436.98 520.04 439.62 Z M 494.02 434.65 L 489.04 428.36 M 499.56 434.65 L 497.9 427.46 M 506.21 434.65 L 508.42 427.46 M 511.74 434.65 L 517.28 428.36 M 518.94 428.69 C 508.69 427.06 498.19 427.06 487.93 428.69 L 483.5 424.72 C 496.62 422.01 510.26 422.01 523.37 424.72 Z" fill="#ffffff" stroke="#000000" stroke-linejoin="round" stroke-miterlimit="10" transform="rotate(90,503.5,448)" pointer-events="none"/></g><g shape-node=""><path cell-id="CIwULWJDmqd1CjYKgn_B-16" d="M 520.54 386.62 L 523.45 410.46 C 524 413.97 522.48 417.47 519.57 419.4 C 509.61 421 499.46 421 489.5 419.4 C 486.59 417.47 485.06 413.97 485.62 410.46 L 488.53 386.62 C 489.09 383.98 491.86 381.95 495.32 381.65 L 513.75 381.65 C 517.2 381.95 519.98 383.98 520.54 386.62 Z M 494.52 381.65 L 489.54 375.36 M 500.06 381.65 L 498.4 374.46 M 506.71 381.65 L 508.92 374.46 M 512.24 381.65 L 517.78 375.36 M 519.44 375.69 C 509.19 374.06 498.69 374.06 488.43 375.69 L 484 371.72 C 497.12 369.01 510.76 369.01 523.87 371.72 Z" fill="#ffffff" stroke="#000000" stroke-linejoin="round" stroke-miterlimit="10" transform="rotate(90,504,395)" pointer-events="none"/></g><g shape-node=""><path cell-id="CIwULWJDmqd1CjYKgn_B-17" d="M 516.54 603.62 L 519.45 627.46 C 520 630.97 518.48 634.47 515.57 636.4 C 505.61 638 495.46 638 485.5 636.4 C 482.59 634.47 481.06 630.97 481.62 627.46 L 484.53 603.62 C 485.09 600.98 487.86 598.95 491.32 598.65 L 509.75 598.65 C 513.2 598.95 515.98 600.98 516.54 603.62 Z M 490.52 598.65 L 485.54 592.36 M 496.06 598.65 L 494.4 591.46 M 502.71 598.65 L 504.92 591.46 M 508.24 598.65 L 513.78 592.36 M 515.44 592.69 C 505.19 591.06 494.69 591.06 484.43 592.69 L 480 588.72 C 493.12 586.01 506.76 586.01 519.87 588.72 Z" fill="#ffffff" stroke="#000000" stroke-linejoin="round" stroke-miterlimit="10" transform="rotate(90,500,612)" pointer-events="none"/></g><g shape-node=""><path cell-id="CIwULWJDmqd1CjYKgn_B-18" d="M 516.54 548.62 L 519.45 572.46 C 520 575.97 518.48 579.47 515.57 581.4 C 505.61 583 495.46 583 485.5 581.4 C 482.59 579.47 481.06 575.97 481.62 572.46 L 484.53 548.62 C 485.09 545.98 487.86 543.95 491.32 543.65 L 509.75 543.65 C 513.2 543.95 515.98 545.98 516.54 548.62 Z M 490.52 543.65 L 485.54 537.36 M 496.06 543.65 L 494.4 536.46 M 502.71 543.65 L 504.92 536.46 M 508.24 543.65 L 513.78 537.36 M 515.44 537.69 C 505.19 536.06 494.69 536.06 484.43 537.69 L 480 533.72 C 493.12 531.01 506.76 531.01 519.87 533.72 Z" fill="#ffffff" stroke="#000000" stroke-linejoin="round" stroke-miterlimit="10" transform="rotate(90,500,557)" pointer-events="none"/></g><g shape-node=""><path cell-id="CIwULWJDmqd1CjYKgn_B-20" d="M 403.54 498.62 L 406.45 522.46 C 407 525.97 405.48 529.47 402.57 531.4 C 392.61 533 382.46 533 372.5 531.4 C 369.59 529.47 368.06 525.97 368.62 522.46 L 371.53 498.62 C 372.09 495.98 374.86 493.95 378.32 493.65 L 396.75 493.65 C 400.2 493.95 402.98 495.98 403.54 498.62 Z M 377.52 493.65 L 372.54 487.36 M 383.06 493.65 L 381.4 486.46 M 389.71 493.65 L 391.92 486.46 M 395.24 493.65 L 400.78 487.36 M 402.44 487.69 C 392.19 486.06 381.69 486.06 371.43 487.69 L 367 483.72 C 380.12 481.01 393.76 481.01 406.87 483.72 Z" fill="#ffffff" stroke="#000000" stroke-linejoin="round" stroke-miterlimit="10" transform="rotate(-90,387,507)" pointer-events="none"/></g><g shape-node=""><path cell-id="CIwULWJDmqd1CjYKgn_B-21" d="M 404.04 550.62 L 406.95 574.46 C 407.5 577.97 405.98 581.47 403.07 583.4 C 393.11 585 382.96 585 373 583.4 C 370.09 581.47 368.56 577.97 369.12 574.46 L 372.03 550.62 C 372.59 547.98 375.36 545.95 378.82 545.65 L 397.25 545.65 C 400.7 545.95 403.48 547.98 404.04 550.62 Z M 378.02 545.65 L 373.04 539.36 M 383.56 545.65 L 381.9 538.46 M 390.21 545.65 L 392.42 538.46 M 395.74 545.65 L 401.28 539.36 M 402.94 539.69 C 392.69 538.06 382.19 538.06 371.93 539.69 L 367.5 535.72 C 380.62 533.01 394.26 533.01 407.37 535.72 Z" fill="#ffffff" stroke="#000000" stroke-linejoin="round" stroke-miterlimit="10" transform="rotate(-90,387.5,559)" pointer-events="none"/></g><g shape-node=""><path cell-id="CIwULWJDmqd1CjYKgn_B-22" d="M 403.54 603.62 L 406.45 627.46 C 407 630.97 405.48 634.47 402.57 636.4 C 392.61 638 382.46 638 372.5 636.4 C 369.59 634.47 368.06 630.97 368.62 627.46 L 371.53 603.62 C 372.09 600.98 374.86 598.95 378.32 598.65 L 396.75 598.65 C 400.2 598.95 402.98 600.98 403.54 603.62 Z M 377.52 598.65 L 372.54 592.36 M 383.06 598.65 L 381.4 591.46 M 389.71 598.65 L 391.92 591.46 M 395.24 598.65 L 400.78 592.36 M 402.44 592.69 C 392.19 591.06 381.69 591.06 371.43 592.69 L 367 588.72 C 380.12 586.01 393.76 586.01 406.87 588.72 Z" fill="#ffffff" stroke="#000000" stroke-linejoin="round" stroke-miterlimit="10" transform="rotate(-90,387,612)" pointer-events="none"/></g><g shape-node=""><path cell-id="CIwULWJDmqd1CjYKgn_B-23" d="M 407.54 386.62 L 410.45 410.46 C 411 413.97 409.48 417.47 406.57 419.4 C 396.61 421 386.46 421 376.5 419.4 C 373.59 417.47 372.06 413.97 372.62 410.46 L 375.53 386.62 C 376.09 383.98 378.86 381.95 382.32 381.65 L 400.75 381.65 C 404.2 381.95 406.98 383.98 407.54 386.62 Z M 381.52 381.65 L 376.54 375.36 M 387.06 381.65 L 385.4 374.46 M 393.71 381.65 L 395.92 374.46 M 399.24 381.65 L 404.78 375.36 M 406.44 375.69 C 396.19 374.06 385.69 374.06 375.43 375.69 L 371 371.72 C 384.12 369.01 397.76 369.01 410.87 371.72 Z" fill="#ffffff" stroke="#000000" stroke-linejoin="round" stroke-miterlimit="10" transform="rotate(-90,391,395)" pointer-events="none"/></g><g shape-node=""><path cell-id="CIwULWJDmqd1CjYKgn_B-24" d="M 407.54 441.62 L 410.45 465.46 C 411 468.97 409.48 472.47 406.57 474.4 C 396.61 476 386.46 476 376.5 474.4 C 373.59 472.47 372.06 468.97 372.62 465.46 L 375.53 441.62 C 376.09 438.98 378.86 436.95 382.32 436.65 L 400.75 436.65 C 404.2 436.95 406.98 438.98 407.54 441.62 Z M 381.52 436.65 L 376.54 430.36 M 387.06 436.65 L 385.4 429.46 M 393.71 436.65 L 395.92 429.46 M 399.24 436.65 L 404.78 430.36 M 406.44 430.69 C 396.19 429.06 385.69 429.06 375.43 430.69 L 371 426.72 C 384.12 424.01 397.76 424.01 410.87 426.72 Z" fill="#ffffff" stroke="#000000" stroke-linejoin="round" stroke-miterlimit="10" transform="rotate(-90,391,450)" pointer-events="none"/></g><g shape-node=""><rect cell-id="CIwULWJDmqd1CjYKgn_B-25" x="397" y="365" width="100" height="276" fill="#ffffff" stroke="#000000" pointer-events="none"/></g><g shape-node=""><path cell-id="CIwULWJDmqd1CjYKgn_B-12" d="M 342.54 136.62 L 345.45 160.46 C 346 163.97 344.48 167.47 341.57 169.4 C 331.61 171 321.46 171 311.5 169.4 C 308.59 167.47 307.06 163.97 307.62 160.46 L 310.53 136.62 C 311.09 133.98 313.86 131.95 317.32 131.65 L 335.75 131.65 C 339.2 131.95 341.98 133.98 342.54 136.62 Z M 316.52 131.65 L 311.54 125.36 M 322.06 131.65 L 320.4 124.46 M 328.71 131.65 L 330.92 124.46 M 334.24 131.65 L 339.78 125.36 M 341.44 125.69 C 331.19 124.06 320.69 124.06 310.43 125.69 L 306 121.72 C 319.12 119.01 332.76 119.01 345.87 121.72 Z" fill="#ffffff" stroke="#000000" stroke-linejoin="round" stroke-miterlimit="10" transform="rotate(90,326,145)" pointer-events="none"/></g><g shape-node=""><path cell-id="hxKZBSFVh37i9C7gJ8mw-53" d="M 342.54 191.62 L 345.45 215.46 C 346 218.97 344.48 222.47 341.57 224.4 C 331.61 226 321.46 226 311.5 224.4 C 308.59 222.47 307.06 218.97 307.62 215.46 L 310.53 191.62 C 311.09 188.98 313.86 186.95 317.32 186.65 L 335.75 186.65 C 339.2 186.95 341.98 188.98 342.54 191.62 Z M 316.52 186.65 L 311.54 180.36 M 322.06 186.65 L 320.4 179.46 M 328.71 186.65 L 330.92 179.46 M 334.24 186.65 L 339.78 180.36 M 341.44 180.69 C 331.19 179.06 320.69 179.06 310.43 180.69 L 306 176.72 C 319.12 174.01 332.76 174.01 345.87 176.72 Z" fill="#ffffff" stroke="#000000" stroke-linejoin="round" stroke-miterlimit="10" transform="rotate(90,326,200)" pointer-events="none"/></g><g shape-node=""><path cell-id="CIwULWJDmqd1CjYKgn_B-28" d="M 342.54 246.62 L 345.45 270.46 C 346 273.97 344.48 277.47 341.57 279.4 C 331.61 281 321.46 281 311.5 279.4 C 308.59 277.47 307.06 273.97 307.62 270.46 L 310.53 246.62 C 311.09 243.98 313.86 241.95 317.32 241.65 L 335.75 241.65 C 339.2 241.95 341.98 243.98 342.54 246.62 Z M 316.52 241.65 L 311.54 235.36 M 322.06 241.65 L 320.4 234.46 M 328.71 241.65 L 330.92 234.46 M 334.24 241.65 L 339.78 235.36 M 341.44 235.69 C 331.19 234.06 320.69 234.06 310.43 235.69 L 306 231.72 C 319.12 229.01 332.76 229.01 345.87 231.72 Z" fill="#ffffff" stroke="#000000" stroke-linejoin="round" stroke-miterlimit="10" transform="rotate(90,326,255)" pointer-events="none"/></g><g shape-node=""><path cell-id="CIwULWJDmqd1CjYKgn_B-31" d="M 230.54 246.62 L 233.45 270.46 C 234 273.97 232.48 277.47 229.57 279.4 C 219.61 281 209.46 281 199.5 279.4 C 196.59 277.47 195.06 273.97 195.62 270.46 L 198.53 246.62 C 199.09 243.98 201.86 241.95 205.32 241.65 L 223.75 241.65 C 227.2 241.95 229.98 243.98 230.54 246.62 Z M 204.52 241.65 L 199.54 235.36 M 210.06 241.65 L 208.4 234.46 M 216.71 241.65 L 218.92 234.46 M 222.24 241.65 L 227.78 235.36 M 229.44 235.69 C 219.19 234.06 208.69 234.06 198.43 235.69 L 194 231.72 C 207.12 229.01 220.76 229.01 233.87 231.72 Z" fill="#ffffff" stroke="#000000" stroke-linejoin="round" stroke-miterlimit="10" transform="rotate(-90,214,255)" pointer-events="none"/></g><g shape-node=""><path cell-id="CIwULWJDmqd1CjYKgn_B-32" d="M 230.54 191.62 L 233.45 215.46 C 234 218.97 232.48 222.47 229.57 224.4 C 219.61 226 209.46 226 199.5 224.4 C 196.59 222.47 195.06 218.97 195.62 215.46 L 198.53 191.62 C 199.09 188.98 201.86 186.95 205.32 186.65 L 223.75 186.65 C 227.2 186.95 229.98 188.98 230.54 191.62 Z M 204.52 186.65 L 199.54 180.36 M 210.06 186.65 L 208.4 179.46 M 216.71 186.65 L 218.92 179.46 M 222.24 186.65 L 227.78 180.36 M 229.44 180.69 C 219.19 179.06 208.69 179.06 198.43 180.69 L 194 176.72 C 207.12 174.01 220.76 174.01 233.87 176.72 Z" fill="#ffffff" stroke="#000000" stroke-linejoin="round" stroke-miterlimit="10" transform="rotate(-90,214,200)" pointer-events="none"/></g><g shape-node=""><path cell-id="CIwULWJDmqd1CjYKgn_B-33" d="M 230.54 136.62 L 233.45 160.46 C 234 163.97 232.48 167.47 229.57 169.4 C 219.61 171 209.46 171 199.5 169.4 C 196.59 167.47 195.06 163.97 195.62 160.46 L 198.53 136.62 C 199.09 133.98 201.86 131.95 205.32 131.65 L 223.75 131.65 C 227.2 131.95 229.98 133.98 230.54 136.62 Z M 204.52 131.65 L 199.54 125.36 M 210.06 131.65 L 208.4 124.46 M 216.71 131.65 L 218.92 124.46 M 222.24 131.65 L 227.78 125.36 M 229.44 125.69 C 219.19 124.06 208.69 124.06 198.43 125.69 L 194 121.72 C 207.12 119.01 220.76 119.01 233.87 121.72 Z" fill="#ffffff" stroke="#000000" stroke-linejoin="round" stroke-miterlimit="10" transform="rotate(-90,214,145)" pointer-events="none"/></g><g shape-node=""><rect cell-id="hxKZBSFVh37i9C7gJ8mw-54" x="220" y="115" width="100" height="170" fill="#ffffff" stroke="#000000" pointer-events="none"/></g><g shape-node=""><path cell-id="CIwULWJDmqd1CjYKgn_B-37" d="M 592.54 136.62 L 595.45 160.46 C 596 163.97 594.48 167.47 591.57 169.4 C 581.61 171 571.46 171 561.5 169.4 C 558.59 167.47 557.06 163.97 557.62 160.46 L 560.53 136.62 C 561.09 133.98 563.86 131.95 567.32 131.65 L 585.75 131.65 C 589.2 131.95 591.98 133.98 592.54 136.62 Z M 566.52 131.65 L 561.54 125.36 M 572.06 131.65 L 570.4 124.46 M 578.71 131.65 L 580.92 124.46 M 584.24 131.65 L 589.78 125.36 M 591.44 125.69 C 581.19 124.06 570.69 124.06 560.43 125.69 L 556 121.72 C 569.12 119.01 582.76 119.01 595.87 121.72 Z" fill="#ffffff" stroke="#000000" stroke-linejoin="round" stroke-miterlimit="10" transform="rotate(90,576,145)" pointer-events="none"/></g><g shape-node=""><path cell-id="CIwULWJDmqd1CjYKgn_B-38" d="M 592.54 191.62 L 595.45 215.46 C 596 218.97 594.48 222.47 591.57 224.4 C 581.61 226 571.46 226 561.5 224.4 C 558.59 222.47 557.06 218.97 557.62 215.46 L 560.53 191.62 C 561.09 188.98 563.86 186.95 567.32 186.65 L 585.75 186.65 C 589.2 186.95 591.98 188.98 592.54 191.62 Z M 566.52 186.65 L 561.54 180.36 M 572.06 186.65 L 570.4 179.46 M 578.71 186.65 L 580.92 179.46 M 584.24 186.65 L 589.78 180.36 M 591.44 180.69 C 581.19 179.06 570.69 179.06 560.43 180.69 L 556 176.72 C 569.12 174.01 582.76 174.01 595.87 176.72 Z" fill="#ffffff" stroke="#000000" stroke-linejoin="round" stroke-miterlimit="10" transform="rotate(90,576,200)" pointer-events="none"/></g><g shape-node=""><path cell-id="CIwULWJDmqd1CjYKgn_B-39" d="M 592.54 246.62 L 595.45 270.46 C 596 273.97 594.48 277.47 591.57 279.4 C 581.61 281 571.46 281 561.5 279.4 C 558.59 277.47 557.06 273.97 557.62 270.46 L 560.53 246.62 C 561.09 243.98 563.86 241.95 567.32 241.65 L 585.75 241.65 C 589.2 241.95 591.98 243.98 592.54 246.62 Z M 566.52 241.65 L 561.54 235.36 M 572.06 241.65 L 570.4 234.46 M 578.71 241.65 L 580.92 234.46 M 584.24 241.65 L 589.78 235.36 M 591.44 235.69 C 581.19 234.06 570.69 234.06 560.43 235.69 L 556 231.72 C 569.12 229.01 582.76 229.01 595.87 231.72 Z" fill="#ffffff" stroke="#000000" stroke-linejoin="round" stroke-miterlimit="10" transform="rotate(90,576,255)" pointer-events="none"/></g><g shape-node=""><path cell-id="CIwULWJDmqd1CjYKgn_B-41" d="M 480.54 246.62 L 483.45 270.46 C 484 273.97 482.48 277.47 479.57 279.4 C 469.61 281 459.46 281 449.5 279.4 C 446.59 277.47 445.06 273.97 445.62 270.46 L 448.53 246.62 C 449.09 243.98 451.86 241.95 455.32 241.65 L 473.75 241.65 C 477.2 241.95 479.98 243.98 480.54 246.62 Z M 454.52 241.65 L 449.54 235.36 M 460.06 241.65 L 458.4 234.46 M 466.71 241.65 L 468.92 234.46 M 472.24 241.65 L 477.78 235.36 M 479.44 235.69 C 469.19 234.06 458.69 234.06 448.43 235.69 L 444 231.72 C 457.12 229.01 470.76 229.01 483.87 231.72 Z" fill="#ffffff" stroke="#000000" stroke-linejoin="round" stroke-miterlimit="10" transform="rotate(-90,464,255)" pointer-events="none"/></g><g shape-node=""><path cell-id="CIwULWJDmqd1CjYKgn_B-42" d="M 480.54 191.62 L 483.45 215.46 C 484 218.97 482.48 222.47 479.57 224.4 C 469.61 226 459.46 226 449.5 224.4 C 446.59 222.47 445.06 218.97 445.62 215.46 L 448.53 191.62 C 449.09 188.98 451.86 186.95 455.32 186.65 L 473.75 186.65 C 477.2 186.95 479.98 188.98 480.54 191.62 Z M 454.52 186.65 L 449.54 180.36 M 460.06 186.65 L 458.4 179.46 M 466.71 186.65 L 468.92 179.46 M 472.24 186.65 L 477.78 180.36 M 479.44 180.69 C 469.19 179.06 458.69 179.06 448.43 180.69 L 444 176.72 C 457.12 174.01 470.76 174.01 483.87 176.72 Z" fill="#ffffff" stroke="#000000" stroke-linejoin="round" stroke-miterlimit="10" transform="rotate(-90,464,200)" pointer-events="none"/></g><g shape-node=""><path cell-id="CIwULWJDmqd1CjYKgn_B-43" d="M 480.54 136.62 L 483.45 160.46 C 484 163.97 482.48 167.47 479.57 169.4 C 469.61 171 459.46 171 449.5 169.4 C 446.59 167.47 445.06 163.97 445.62 160.46 L 448.53 136.62 C 449.09 133.98 451.86 131.95 455.32 131.65 L 473.75 131.65 C 477.2 131.95 479.98 133.98 480.54 136.62 Z M 454.52 131.65 L 449.54 125.36 M 460.06 131.65 L 458.4 124.46 M 466.71 131.65 L 468.92 124.46 M 472.24 131.65 L 477.78 125.36 M 479.44 125.69 C 469.19 124.06 458.69 124.06 448.43 125.69 L 444 121.72 C 457.12 119.01 470.76 119.01 483.87 121.72 Z" fill="#ffffff" stroke="#000000" stroke-linejoin="round" stroke-miterlimit="10" transform="rotate(-90,464,145)" pointer-events="none"/></g><g shape-node=""><rect cell-id="CIwULWJDmqd1CjYKgn_B-44" x="470" y="115" width="100" height="170" fill="#ffffff" stroke="#000000" pointer-events="none"/></g><g shape-node=""><rect cell-id="CIwULWJDmqd1CjYKgn_B-45" x="-295.5" y="371" width="602" height="10" fill="#000000" stroke="#000000" transform="rotate(90,5.5,376)" pointer-events="none"/></g></g><g fill="#787878" font-family="Arial,Helvetica" pointer-events="none" font-size="12px"><text pointer-events="none" x="6" y="15">Visual Paradigm Online Free Edition</text></g><g fill="#787878" font-family="Arial,Helvetica" pointer-events="none" text-anchor="end" font-size="12px"><text pointer-events="none" x="709" y="677">Visual Paradigm Online Free Edition</text></g></svg>