<svg width="186" height="195" viewBox="0 0 186 195" fill="none" xmlns="http://www.w3.org/2000/svg">
<path d="M19.9117 141.135L46.9204 137.82C50.8888 137.169 54.8572 138.945 57.0487 142.201C58.8848 153.508 58.8848 164.992 57.0487 176.298C54.8572 179.613 50.8888 181.33 46.9204 180.679L19.9117 177.364C16.9502 176.713 14.6402 173.575 14.2849 169.668V148.772C14.6402 144.924 16.9502 141.787 19.9117 141.135ZM14.2849 170.616L7.11809 176.239L14.2849 170.616ZM14.2849 164.341L6.11118 166.235L14.2849 164.341ZM14.2849 156.823L6.11118 154.336L14.2849 156.823ZM14.2849 150.548L7.11809 144.273L14.2849 150.548ZM7.53269 142.378C5.69657 153.981 5.69657 165.88 7.53269 177.542L3.03123 182.573C-0.0487102 167.715 -0.0487102 152.264 3.03123 137.406L7.53269 142.378Z" fill="#D2AB6F"/>
<path d="M14.2849 170.616L7.11809 176.239M14.2849 164.341L6.11118 166.235M14.2849 156.823L6.11118 154.336M14.2849 150.548L7.11809 144.273M19.9117 141.135L46.9204 137.82C50.8888 137.169 54.8572 138.945 57.0487 142.201C58.8848 153.508 58.8848 164.992 57.0487 176.298C54.8572 179.613 50.8888 181.33 46.9204 180.679L19.9117 177.364C16.9502 176.713 14.6402 173.575 14.2849 169.668V148.772C14.6402 144.924 16.9502 141.787 19.9117 141.135ZM7.53269 142.378C5.69657 153.981 5.69657 165.88 7.53269 177.542L3.03123 182.573C-0.0487101 167.715 -0.0487101 152.264 3.03123 137.406L7.53269 142.378Z" stroke="black" stroke-miterlimit="10" stroke-linejoin="round"/>
<path d="M19.9117 78.86L46.9204 75.545C50.8888 74.8938 54.8572 76.6697 57.0487 79.9256C58.8848 91.2322 58.8848 102.716 57.0487 114.023C54.8572 117.338 50.8888 119.055 46.9204 118.404L19.9117 115.089C16.891 114.437 14.6402 111.3 14.2849 107.393V86.4965C14.6402 82.5895 16.9502 79.452 19.9117 78.86ZM14.2849 108.34L7.11809 113.964L14.2849 108.34ZM14.2849 102.065L6.11118 103.96L14.2849 102.065ZM14.2849 94.4881L6.11118 92.0018L14.2849 94.4881ZM14.2849 88.2132L7.11809 81.9383L14.2849 88.2132ZM7.53269 80.1032C5.69657 91.7058 5.69657 103.604 7.53269 115.266L3.03123 120.298C-0.0487102 105.44 -0.0487102 89.9891 3.03123 75.1306L7.53269 80.1032Z" fill="#D2AB6F"/>
<path d="M14.2849 108.34L7.11809 113.964M14.2849 102.065L6.11118 103.96M14.2849 94.4881L6.11118 92.0018M14.2849 88.2132L7.11809 81.9383M19.9117 78.86L46.9204 75.545C50.8888 74.8938 54.8572 76.6697 57.0487 79.9256C58.8848 91.2322 58.8848 102.716 57.0487 114.023C54.8572 117.338 50.8888 119.055 46.9204 118.404L19.9117 115.089C16.891 114.437 14.6402 111.3 14.2849 107.393V86.4965C14.6402 82.5895 16.9502 79.452 19.9117 78.86ZM7.53269 80.1032C5.69657 91.7058 5.69657 103.604 7.53269 115.266L3.03123 120.298C-0.0487101 105.44 -0.0487101 89.9891 3.03123 75.1306L7.53269 80.1032Z" stroke="black" stroke-miterlimit="10" stroke-linejoin="round"/>
<path d="M19.9117 16.5255L46.9204 13.2105C50.8888 12.5593 54.8572 14.3352 57.0487 17.591C58.8848 28.8977 58.8848 40.3819 57.0487 51.6885C54.8572 55.0036 50.8888 56.7203 46.9204 56.0691L19.9117 52.7541C16.891 52.1029 14.6402 48.9655 14.2849 45.0585V24.1619C14.6402 20.3141 16.9502 17.1767 19.9117 16.5255ZM14.2849 46.0056L7.17731 51.6294L14.2849 46.0056ZM14.2849 39.7308L6.11118 41.625L14.2849 39.7308ZM14.2849 32.2127L6.11118 29.7264L14.2849 32.2127ZM14.2849 25.9378L7.17731 19.6629L14.2849 25.9378ZM7.53269 17.7686C5.69657 29.3713 5.69657 41.2699 7.53269 52.9317L3.03123 57.9634C-0.0487102 43.105 -0.0487102 27.6545 3.03123 12.7961L7.53269 17.7686Z" fill="#D2AB6F"/>
<path d="M14.2849 46.0056L7.17731 51.6294M14.2849 39.7308L6.11118 41.625M14.2849 32.2127L6.11118 29.7264M14.2849 25.9378L7.17731 19.6629M19.9117 16.5255L46.9204 13.2105C50.8888 12.5593 54.8572 14.3352 57.0487 17.591C58.8848 28.8977 58.8848 40.3819 57.0487 51.6885C54.8572 55.0036 50.8888 56.7203 46.9204 56.0691L19.9117 52.7541C16.891 52.1029 14.6402 48.9655 14.2849 45.0585V24.1619C14.6402 20.3141 16.9502 17.1767 19.9117 16.5255ZM7.53269 17.7686C5.69657 29.3713 5.69657 41.2699 7.53269 52.9317L3.03123 57.9634C-0.0487101 43.105 -0.0487101 27.6545 3.03123 12.7961L7.53269 17.7686Z" stroke="black" stroke-miterlimit="10" stroke-linejoin="round"/>
<path d="M165.913 53.9972L138.904 57.3123C134.936 57.9634 130.967 56.1875 128.776 52.9317C126.94 41.625 126.94 30.1408 128.776 18.8934C130.967 15.5783 134.936 13.8616 138.904 14.5128L165.913 17.8278C168.874 18.479 171.184 21.6164 171.54 25.5234V46.42C171.184 50.2086 168.874 53.3461 165.913 53.9972ZM171.54 24.5171L178.647 18.8934L171.54 24.5171ZM171.54 30.792L179.713 28.8977L171.54 30.792ZM171.54 38.31L179.713 40.7963L171.54 38.31ZM171.54 44.5849L178.647 50.8598L171.54 44.5849ZM178.292 52.7541C180.128 41.1515 180.128 29.2528 178.292 17.6502L182.793 12.6185C185.873 27.4769 185.873 42.9274 182.793 57.7858L178.292 52.7541Z" fill="#D2AB6F"/>
<path d="M171.54 24.5171L178.647 18.8934M171.54 30.792L179.713 28.8977M171.54 38.31L179.713 40.7963M171.54 44.5849L178.647 50.8598M165.913 53.9972L138.904 57.3123C134.936 57.9634 130.967 56.1875 128.776 52.9317C126.94 41.625 126.94 30.1408 128.776 18.8934C130.967 15.5783 134.936 13.8616 138.904 14.5128L165.913 17.8278C168.874 18.479 171.184 21.6164 171.54 25.5234V46.42C171.184 50.2086 168.874 53.3461 165.913 53.9972ZM178.292 52.7541C180.128 41.1515 180.128 29.2528 178.292 17.6502L182.793 12.6185C185.873 27.4769 185.873 42.9274 182.793 57.7858L178.292 52.7541Z" stroke="black" stroke-miterlimit="10" stroke-linejoin="round"/>
<path d="M165.913 116.332L138.904 119.647C134.936 120.298 130.967 118.522 128.776 115.266C126.94 103.96 126.94 92.4753 128.776 81.2279C130.967 77.9129 134.936 76.1961 138.904 76.8473L165.913 80.1623C168.874 80.8135 171.184 83.951 171.54 87.858V108.755C171.184 112.543 168.874 115.681 165.913 116.332ZM171.54 86.8516L178.706 81.2279L171.54 86.8516ZM171.54 93.1265L179.713 91.2322L171.54 93.1265ZM171.54 100.645L179.713 103.131L171.54 100.645ZM171.54 106.919L178.706 113.194L171.54 106.919ZM178.292 115.089C180.128 103.486 180.128 91.5874 178.292 79.9848L182.793 74.953C185.873 89.8115 185.873 105.262 182.793 120.12L178.292 115.089Z" fill="#D2AB6F"/>
<path d="M171.54 86.8516L178.706 81.2279M171.54 93.1265L179.713 91.2322M171.54 100.645L179.713 103.131M171.54 106.919L178.706 113.194M165.913 116.332L138.904 119.647C134.936 120.298 130.967 118.522 128.776 115.266C126.94 103.96 126.94 92.4753 128.776 81.2279C130.967 77.9129 134.936 76.1961 138.904 76.8473L165.913 80.1623C168.874 80.8135 171.184 83.951 171.54 87.858V108.755C171.184 112.543 168.874 115.681 165.913 116.332ZM178.292 115.089C180.128 103.486 180.128 91.5874 178.292 79.9848L182.793 74.953C185.873 89.8115 185.873 105.262 182.793 120.12L178.292 115.089Z" stroke="black" stroke-miterlimit="10" stroke-linejoin="round"/>
<path d="M165.913 178.666L138.904 181.981C134.936 182.633 130.967 180.857 128.776 177.601C126.94 166.294 126.94 154.81 128.776 143.503C130.967 140.188 134.936 138.471 138.904 139.123L165.913 142.438C168.874 143.089 171.184 146.226 171.54 150.133V171.03C171.184 174.878 168.874 178.015 165.913 178.666ZM171.54 149.186L178.706 143.562L171.54 149.186ZM171.54 155.461L179.713 153.567L171.54 155.461ZM171.54 162.979L179.713 165.465L171.54 162.979ZM171.54 169.254L178.706 175.529L171.54 169.254ZM178.292 177.423C180.128 165.821 180.128 153.922 178.292 142.26L182.793 137.228C185.873 152.087 185.873 167.537 182.793 182.396L178.292 177.423Z" fill="#D2AB6F"/>
<path d="M171.54 149.186L178.706 143.562M171.54 155.461L179.713 153.567M171.54 162.979L179.713 165.465M171.54 169.254L178.706 175.529M165.913 178.666L138.904 181.981C134.936 182.633 130.967 180.857 128.776 177.601C126.94 166.294 126.94 154.81 128.776 143.503C130.967 140.188 134.936 138.471 138.904 139.123L165.913 142.438C168.874 143.089 171.184 146.226 171.54 150.133V171.03C171.184 174.878 168.874 178.015 165.913 178.666ZM178.292 177.423C180.128 165.821 180.128 153.922 178.292 142.26L182.793 137.228C185.873 152.087 185.873 167.537 182.793 182.396L178.292 177.423Z" stroke="black" stroke-miterlimit="10" stroke-linejoin="round"/>
<path d="M149.625 1.25269H36.259V193.88H149.625V1.25269Z" fill="#D2AB6F" stroke="black"/>
</svg>
